<svg width="364" height="362" viewBox="0 0 364 362" fill="none" xmlns="http://www.w3.org/2000/svg">
<path d="M340.215 241.455C305.863 322.34 214.358 367.652 135.004 355.429C122.092 353.44 86.6917 347.516 55.3501 319.565C-4.98464 265.759 -17.8877 159.215 30.7825 84.1317C66.206 29.4838 129.706 -1.49414 190.043 0.055489C203.04 0.389207 252.849 2.44631 296.622 38.5408C303.052 43.8424 317.232 56.4404 330.013 76.4263C360.023 123.357 362.602 188.741 340.215 241.455Z" fill="url(#paint0_linear_169_2848)"/>
<path d="M324.248 195.885C327.73 116.64 261.212 49.3525 175.675 45.5936C90.138 41.8348 17.9737 103.028 14.4913 182.273C11.009 261.518 77.5274 328.806 163.064 332.564C248.601 336.323 320.766 275.13 324.248 195.885Z" fill="#91B3FA"/>
<g opacity="0.24">
<path d="M160.979 293.621C228.166 293.621 282.632 242.168 282.632 178.697C282.632 115.227 228.166 63.774 160.979 63.774C93.7916 63.774 39.3257 115.227 39.3257 178.697C39.3257 242.168 93.7916 293.621 160.979 293.621Z" fill="#BDD0FB"/>
</g>
<g opacity="0.68">
<path d="M208.975 189.754C208.938 215.086 207.201 240.47 202.737 265.443C201.606 271.682 200.296 277.89 198.735 284.039C197.169 290.186 195.361 296.28 193.148 302.238C190.916 308.18 188.325 314.037 184.812 319.39C183.042 322.047 181.034 324.592 178.556 326.687C177.317 327.727 175.957 328.65 174.461 329.326C172.968 329.997 171.336 330.422 169.68 330.452C168.026 330.5 166.369 330.177 164.847 329.563C163.318 328.956 161.925 328.075 160.656 327.069C158.119 325.04 156.067 322.522 154.265 319.886C150.69 314.572 148.064 308.727 145.809 302.794C143.567 296.846 141.742 290.757 140.162 284.614C138.585 278.469 137.262 272.263 136.122 266.027C133.848 253.552 132.297 240.957 131.251 228.327C130.211 215.695 129.69 203.023 129.626 190.349C129.595 184.013 129.768 177.678 129.993 171.347C130.231 165.016 130.579 158.689 131.046 152.37C131.983 139.735 133.382 127.128 135.463 114.624C136.507 108.374 137.725 102.15 139.189 95.9808C140.657 89.8141 142.364 83.6963 144.48 77.711C145.544 74.721 146.707 71.7633 148.033 68.8749C149.357 65.9871 150.84 63.1625 152.581 60.4918C154.327 57.833 156.334 55.295 158.833 53.2634C160.083 52.2565 161.459 51.3803 162.967 50.7868C164.469 50.1856 166.099 49.8812 167.72 49.9427C169.342 49.9889 170.941 50.3933 172.417 51.0432C173.894 51.6961 175.252 52.584 176.498 53.5905C178.991 55.6163 181.054 58.0931 182.885 60.6941C186.524 65.9322 189.267 71.7089 191.644 77.5867C194.003 83.4805 195.951 89.527 197.647 95.6359C199.338 101.748 200.769 107.928 202.008 114.144C206.911 139.03 208.902 164.417 208.975 189.754ZM207.1 189.754C207.123 177.131 206.644 164.506 205.595 151.927C204.561 139.349 202.994 126.807 200.66 114.404C199.494 108.203 198.137 102.038 196.521 95.9405C194.9 89.8464 193.029 83.8142 190.752 77.9384C188.457 72.079 185.797 66.3225 182.266 61.1216C180.492 58.5395 178.49 56.0871 176.088 54.092C174.887 53.1004 173.583 52.2291 172.173 51.5873C170.764 50.9533 169.246 50.5377 167.702 50.4972C166.16 50.4483 164.619 50.7587 163.192 51.3458C161.76 51.9272 160.446 52.7826 159.247 53.7702C156.85 55.7622 154.907 58.268 153.218 60.9031C151.533 63.5497 150.098 66.3566 148.819 69.2295C147.537 72.1031 146.415 75.0493 145.392 78.0283C143.356 83.9925 141.726 90.0941 140.332 96.2452C138.942 102.399 137.798 108.608 136.826 114.843C134.89 127.317 133.633 139.893 132.837 152.492C132.032 165.093 131.755 177.722 131.778 190.346C131.744 202.968 132.166 215.593 133.104 228.181C134.05 240.767 135.498 253.32 137.665 265.751C138.751 271.965 140.02 278.147 141.54 284.265C143.063 290.382 144.829 296.441 147.004 302.348C149.19 308.239 151.747 314.035 155.202 319.255C156.941 321.843 158.919 324.298 161.317 326.244C162.515 327.21 163.819 328.045 165.229 328.617C166.634 329.191 168.142 329.51 169.653 329.459C171.163 329.42 172.651 329.021 174.033 328.387C175.416 327.749 176.693 326.872 177.865 325.871C180.21 323.858 182.147 321.372 183.855 318.761C187.25 313.5 189.769 307.691 191.931 301.79C194.076 295.872 195.824 289.808 197.331 283.688C198.833 277.566 200.087 271.38 201.162 265.165C203.315 252.732 204.745 240.177 205.696 227.591C206.66 215.005 207.105 202.379 207.1 189.754Z" fill="white"/>
<path d="M272.881 189.754C272.793 206.067 270.696 222.388 266.329 238.119C261.886 253.815 255.188 268.914 246.094 282.47C241.547 289.241 236.395 295.614 230.639 301.397C224.885 307.177 218.522 312.365 211.614 316.712C204.7 321.043 197.233 324.51 189.416 326.862C181.604 329.22 173.448 330.45 165.285 330.458C157.122 330.457 148.965 329.235 141.148 326.883C133.327 324.538 125.854 321.076 118.933 316.75C112.018 312.407 105.645 307.224 99.8818 301.446C94.1159 295.666 88.9541 289.294 84.3966 282.523C75.2847 268.965 68.5727 253.859 64.1086 238.156C61.9114 230.29 60.2784 222.269 59.1967 214.176C58.1207 206.082 57.5801 197.919 57.543 189.754C57.5851 181.588 58.1309 173.427 59.2118 165.334C60.2987 157.242 61.9378 149.223 64.1404 141.36C68.6157 125.664 75.338 110.568 84.4558 97.0237C89.0153 90.2592 94.1779 83.8943 99.943 78.1224C105.706 72.353 112.075 67.1747 118.988 62.8454C125.907 58.5301 133.379 55.0945 141.186 52.7498C148.989 50.3953 157.133 49.1672 165.285 49.1593C173.437 49.1741 181.58 50.4089 189.379 52.7694C197.182 55.1204 204.647 58.5629 211.559 62.8827C218.465 67.2169 224.824 72.3994 230.578 78.1713C236.334 83.9459 241.486 90.312 246.035 97.0766C255.135 110.619 261.843 125.708 266.297 141.397C270.674 157.123 272.782 173.441 272.881 189.754ZM270.731 189.754C270.708 173.626 268.699 157.48 264.443 141.912C260.164 126.367 253.721 111.36 244.851 97.8643C240.419 91.1233 235.384 84.7694 229.745 78.9937C224.105 73.2269 217.874 68.0096 211.06 63.6732C204.237 59.361 196.87 55.89 189.145 53.5424C181.423 51.193 173.362 49.9581 165.285 49.9311C157.209 49.9648 149.149 51.2066 141.432 53.5619C133.711 55.9159 126.35 59.3937 119.534 63.7104C112.728 68.0517 106.506 73.2734 100.875 79.0427C95.2458 84.821 90.2215 91.1761 85.7993 97.9173C76.9477 111.411 70.5187 126.412 66.2606 141.949C64.1394 149.726 62.6035 157.656 61.5628 165.645C60.5196 173.636 60.0049 181.693 59.9869 189.754C60.0099 197.814 60.5298 205.871 61.5779 213.86C62.6238 221.848 64.1659 229.776 66.2924 237.55C70.5614 253.081 77.001 268.071 85.8586 281.551C90.2826 288.286 95.3076 294.634 100.936 300.404C106.567 306.165 112.784 311.382 119.59 315.709C126.403 320.015 133.763 323.467 141.47 325.82C149.174 328.179 157.22 329.426 165.285 329.467C173.351 329.434 181.4 328.194 189.107 325.842C196.819 323.495 204.184 320.048 211.005 315.747C217.817 311.424 224.044 306.212 229.684 300.454C235.322 294.686 240.358 288.339 244.792 281.604C253.668 268.122 260.122 253.125 264.411 237.587C268.676 222.024 270.697 205.882 270.731 189.754Z" fill="white"/>
<path d="M39.7305 134.077L72.0427 133.816L104.355 133.668L168.979 133.549L233.604 133.68L265.916 133.842L298.228 134.123C298.281 134.124 298.323 134.167 298.322 134.219C298.322 134.271 298.28 134.313 298.228 134.313L265.916 134.595L233.604 134.756L168.979 134.888L104.355 134.769L72.0427 134.621L39.7305 134.36C39.6526 134.359 39.5897 134.295 39.5903 134.217C39.591 134.14 39.6536 134.078 39.7305 134.077Z" fill="white"/>
<path d="M77.2165 79.9568C84.8634 79.8356 92.5103 79.7836 100.157 79.6958L123.098 79.5479C130.745 79.4849 138.392 79.4917 146.039 79.4722L168.979 79.4286L214.86 79.5599L237.801 79.7214C245.448 79.8174 253.095 79.8734 260.742 80.0032C260.794 80.0041 260.836 80.0473 260.835 80.0997C260.834 80.151 260.793 80.1921 260.742 80.1929C253.095 80.3227 245.448 80.3789 237.801 80.4746L214.86 80.6362L168.979 80.7675L146.039 80.7239C138.392 80.7044 130.745 80.7113 123.098 80.6481L100.157 80.5003C92.5103 80.4124 84.8634 80.3605 77.2165 80.2393C77.1386 80.238 77.0762 80.1739 77.0774 80.0958C77.0786 80.0194 77.1405 79.9581 77.2165 79.9568Z" fill="white"/>
<path d="M28.5016 188.197L63.621 187.937L98.7404 187.788L168.979 187.669L239.218 187.8L274.337 187.962L309.457 188.244C309.509 188.244 309.551 188.287 309.551 188.339C309.551 188.391 309.509 188.433 309.457 188.433L274.337 188.715L239.218 188.877L168.979 189.008L98.7404 188.889L63.621 188.74L28.5016 188.48C28.4237 188.479 28.3608 188.415 28.3613 188.337C28.362 188.26 28.4246 188.198 28.5016 188.197Z" fill="white"/>
<path d="M39.7305 242.317L72.0427 242.056L104.355 241.908L168.979 241.789L233.604 241.92L265.916 242.082L298.228 242.364C298.281 242.364 298.323 242.407 298.322 242.459C298.322 242.511 298.28 242.553 298.228 242.553L265.916 242.835L233.604 242.997L168.979 243.128L104.355 243.009L72.0427 242.861L39.7305 242.6C39.6526 242.599 39.5897 242.536 39.5903 242.458C39.591 242.38 39.6536 242.318 39.7305 242.317Z" fill="white"/>
<path d="M265.365 297.074H81.8401C81.5663 297.074 81.3447 296.852 81.3447 296.579C81.3447 296.305 81.5663 296.083 81.8401 296.083H265.365C265.639 296.083 265.861 296.305 265.861 296.579C265.861 296.852 265.639 297.074 265.365 297.074Z" fill="white"/>
</g>
<path d="M242.145 73.1454H208.6C206.034 73.1454 203.955 71.0656 203.955 68.5001V34.8646C203.955 32.4444 205.813 30.4297 208.225 30.2345L243.966 27.3418C246.781 27.1139 249.147 29.4309 248.977 32.2506L246.782 68.7788C246.635 71.2315 244.603 73.1454 242.145 73.1454Z" fill="url(#paint1_linear_169_2848)"/>
<path opacity="0.73" d="M213.382 66.5985C212.481 66.5985 211.603 66.2528 210.944 65.6321C210.235 64.9638 209.827 64.0211 209.827 63.0461V41.4813C209.827 40.8731 210.321 40.3799 210.929 40.3799C211.537 40.3799 212.03 40.8731 212.03 41.4813V63.0462C212.03 63.4221 212.181 63.771 212.454 64.0286C212.728 64.2862 213.086 64.4136 213.46 64.3937L239.015 62.8724C239.727 62.8294 240.286 62.2374 240.286 61.5243V40.3514C240.286 39.9653 240.128 39.6103 239.842 39.3512C239.556 39.0915 239.185 38.9677 238.802 39.0081L217.544 41.1135C216.842 41.1829 216.542 41.6894 216.446 41.9034C216.349 42.118 216.17 42.6783 216.584 43.2493L224.691 54.4388C224.946 54.7899 225.34 54.9932 225.774 54.997C225.774 54.997 225.782 54.997 225.786 54.997C226.214 54.997 226.608 54.8007 226.865 54.4571L235.796 42.5583C236.161 42.0727 236.851 41.9728 237.338 42.3384C237.824 42.7035 237.923 43.3941 237.558 43.8802L228.627 55.7795C227.942 56.6915 226.917 57.225 225.756 57.1996C224.615 57.1899 223.577 56.6548 222.908 55.7315L214.801 44.542C214.045 43.4994 213.909 42.1753 214.437 41.0004C214.965 39.8253 216.046 39.0483 217.327 38.9214L238.585 36.8162C239.583 36.7193 240.579 37.0463 241.321 37.7185C242.063 38.3908 242.488 39.35 242.488 40.3513V61.524C242.488 63.4007 241.021 64.9586 239.147 65.0705L213.592 66.5918C213.522 66.5963 213.451 66.5985 213.382 66.5985Z" fill="white"/>
<path d="M194.012 69.2142V98.283C194.012 101.737 191.299 104.581 187.849 104.743L151.497 106.451C147.81 106.624 144.727 103.682 144.727 99.9909V69.2142C144.727 65.6424 147.622 62.7469 151.194 62.7469H187.545C191.117 62.7469 194.012 65.6424 194.012 69.2142Z" fill="url(#paint2_linear_169_2848)"/>
<path opacity="0.73" d="M150.883 84.7655C149.655 77.5631 152.259 73.5609 154.661 71.4708C159.18 67.5382 167.239 66.6288 175.195 69.1528C182.992 71.6281 188.488 78.7937 187.448 85.1267C187.035 87.638 184.901 93.128 174.212 93.9994C176.453 95.076 179.496 96.4052 182.287 97.1877L182.289 97.1883C182.811 97.3355 183.139 97.8318 183.071 98.3691C183.002 98.9027 182.562 99.298 182.025 99.3088C181.71 99.3151 181.313 99.3208 180.844 99.3208C174.195 99.3208 153.18 98.241 150.883 84.7655ZM170.417 92.1702C179.231 92.3551 184.739 89.6493 185.534 84.8124C186.409 79.4841 181.406 73.16 174.609 71.0017C168.606 69.0978 160.506 68.9552 155.934 72.9347C152.987 75.499 151.931 79.3705 152.795 84.4397C154.497 94.4269 168.459 96.7583 176.711 97.2559C173.086 95.7398 170.105 94.0865 169.927 93.9874L166.541 92.0994L170.417 92.1702Z" fill="white"/>
<path d="M3.46246 121.126L162.418 120.431C163.938 120.418 165.175 121.651 165.167 123.171L164.827 178.81C164.819 180.34 163.554 181.563 162.025 181.518C148.008 181.1 4.34596 179.256 1.5989 179.371C-1.11575 179.484 0.359171 135.546 0.764344 123.755C0.814324 122.297 2.00394 121.139 3.46246 121.126Z" fill="url(#paint3_linear_169_2848)"/>
<path opacity="0.73" d="M162.108 179.366L162.089 179.365C153.131 179.098 67.2836 178.027 26.0274 177.512C13.9642 177.361 5.40115 177.254 3.1181 177.222L2.9053 177.219L2.86807 177.01C1.89308 171.509 1.90974 153.12 2.91649 123.829C2.92703 123.524 3.17563 123.282 3.48201 123.279L162.438 122.585C162.595 122.585 162.74 122.645 162.848 122.753C162.956 122.862 163.014 123.003 163.013 123.159L162.674 178.798C162.672 179.111 162.418 179.366 162.108 179.366ZM3.33976 176.71C5.90785 176.745 14.3207 176.85 26.0337 176.996C67.2914 177.511 153.142 178.583 162.104 178.85L162.119 178.851C162.135 178.85 162.159 178.825 162.159 178.795L162.498 123.156L162.44 122.843L162.441 123.1L3.48553 123.795C3.45637 123.795 3.43269 123.817 3.43164 123.847C2.43856 152.738 2.40732 170.996 3.33976 176.71Z" fill="white"/>
<path opacity="0.64" d="M10.2637 135.495C10.2637 137 10.7657 138.219 11.385 138.219H72.273C72.8923 138.219 73.3941 137 73.3941 135.495C73.3941 133.99 72.8921 132.771 72.273 132.771H11.385C10.7657 132.771 10.2637 133.99 10.2637 135.495Z" fill="white"/>
<path opacity="0.64" d="M10.2637 144.782C10.2637 146.287 10.7657 147.507 11.385 147.507H72.273C72.8923 147.507 73.3941 146.287 73.3941 144.782C73.3941 143.278 72.8921 142.058 72.273 142.058H11.385C10.7657 142.058 10.2637 143.278 10.2637 144.782Z" fill="white"/>
<path opacity="0.64" d="M10.2637 154.07C10.2637 155.574 10.7657 156.794 11.385 156.794H72.273C72.8923 156.794 73.3941 155.575 73.3941 154.07C73.3941 152.565 72.8921 151.346 72.273 151.346H11.385C10.7657 151.345 10.2637 152.565 10.2637 154.07Z" fill="white"/>
<path opacity="0.64" d="M10.2637 163.357C10.2637 164.861 10.7657 166.081 11.385 166.081H72.273C72.8923 166.081 73.3941 164.861 73.3941 163.357C73.3941 161.852 72.8921 160.632 72.273 160.632H11.385C10.7657 160.633 10.2637 161.852 10.2637 163.357Z" fill="white"/>
<path d="M96.3076 144.903C100.444 140.767 100.444 134.061 96.3076 129.925C92.1714 125.789 85.4653 125.789 81.3291 129.925C77.1929 134.061 77.1929 140.767 81.3291 144.903C85.4653 149.04 92.1714 149.04 96.3076 144.903Z" fill="white"/>
<path d="M122.63 144.904C126.767 140.767 126.767 134.061 122.63 129.925C118.494 125.789 111.788 125.789 107.652 129.925C103.516 134.061 103.516 140.767 107.652 144.904C111.788 149.04 118.494 149.04 122.63 144.904Z" fill="white"/>
<path d="M148.953 145.25C153.09 141.114 153.09 134.408 148.953 130.272C144.817 126.136 138.111 126.136 133.975 130.272C129.839 134.408 129.839 141.114 133.975 145.25C138.111 149.387 144.817 149.387 148.953 145.25Z" fill="white"/>
<path d="M95.1142 135.176C95.442 135.973 95.624 136.846 95.624 137.761C95.624 141.519 92.5781 144.564 88.8208 144.564C85.0635 144.564 82.0174 141.519 82.0174 137.761C82.0174 134.004 85.0633 130.958 88.8208 130.958C88.9358 130.958 89.0502 130.961 89.1639 130.967V129.242C89.05 129.238 88.9357 129.235 88.8208 129.235C84.1116 129.235 80.2942 133.052 80.2942 137.761C80.2942 142.47 84.1116 146.288 88.8208 146.288C93.5298 146.288 97.3474 142.47 97.3474 137.761C97.3474 136.602 97.1155 135.497 96.6962 134.489L95.1142 135.176Z" fill="url(#paint4_linear_169_2848)"/>
<path d="M118.653 143.517C117.604 144.18 116.361 144.564 115.028 144.564C111.271 144.564 108.225 141.519 108.225 137.761C108.225 134.004 111.271 130.958 115.028 130.958C115.143 130.958 115.258 130.961 115.371 130.967V129.242C115.258 129.238 115.143 129.235 115.028 129.235C110.319 129.235 106.502 133.052 106.502 137.761C106.502 142.47 110.319 146.288 115.028 146.288C116.672 146.288 118.206 145.822 119.508 145.017L118.653 143.517Z" fill="url(#paint5_linear_169_2848)"/>
<path d="M147.144 141.586C145.92 143.384 143.857 144.564 141.518 144.564C137.76 144.564 134.715 141.519 134.715 137.761C134.715 134.004 137.76 130.958 141.518 130.958C141.633 130.958 141.747 130.961 141.861 130.967V129.242C141.747 129.238 141.633 129.235 141.518 129.235C136.809 129.235 132.991 133.052 132.991 137.761C132.991 142.47 136.809 146.288 141.518 146.288C144.431 146.288 147.002 144.827 148.54 142.597L147.144 141.586Z" fill="url(#paint6_linear_169_2848)"/>
<g opacity="0.64">
<path d="M97.4505 152.493H80.1907C79.1073 152.493 78.229 153.371 78.229 154.454C78.229 155.537 79.1073 156.416 80.1907 156.416H97.4505C98.5339 156.416 99.4121 155.538 99.4121 154.454C99.4121 153.371 98.5339 152.493 97.4505 152.493Z" fill="white"/>
<path d="M123.773 152.493H106.514C105.43 152.493 104.552 153.371 104.552 154.454C104.552 155.537 105.43 156.416 106.514 156.416H123.773C124.857 156.416 125.735 155.538 125.735 154.454C125.735 153.371 124.857 152.493 123.773 152.493Z" fill="white"/>
<path d="M132.837 156.416H150.097C151.18 156.416 152.058 155.538 152.058 154.454C152.058 153.371 151.18 152.493 150.097 152.493H132.837C131.753 152.493 130.875 153.371 130.875 154.454C130.875 155.537 131.753 156.416 132.837 156.416Z" fill="white"/>
<path d="M97.4505 158.595H80.1907C79.1073 158.595 78.229 159.474 78.229 160.557V172.108C78.229 173.192 79.1073 174.07 80.1907 174.07H97.4505C98.5339 174.07 99.4121 173.192 99.4121 172.108V160.557C99.4121 159.473 98.5339 158.595 97.4505 158.595Z" fill="white"/>
<path d="M123.773 158.595H106.514C105.43 158.595 104.552 159.474 104.552 160.557V172.108C104.552 173.192 105.43 174.07 106.514 174.07H123.773C124.857 174.07 125.735 173.192 125.735 172.108V160.557C125.735 159.473 124.857 158.595 123.773 158.595Z" fill="white"/>
<path d="M150.097 158.595H132.837C131.753 158.595 130.875 159.474 130.875 160.557V172.108C130.875 173.192 131.754 174.07 132.837 174.07H150.097C151.18 174.07 152.058 173.192 152.058 172.108V160.557C152.058 159.473 151.18 158.595 150.097 158.595Z" fill="white"/>
</g>
<path d="M334.6 148.057C334.6 148.057 361.247 162.819 363.451 187.801C365.656 212.784 363.635 316.476 310.201 341.998C256.768 367.519 186.04 361.637 158.967 358.847C131.894 356.057 116.883 337.658 113.529 324.99C110.176 312.321 104.76 265.13 133.24 249.907C161.721 234.685 191.634 211.364 221.524 188.655C251.414 165.946 302.639 128.877 334.6 148.057Z" fill="url(#paint7_linear_169_2848)"/>
<path d="M141.639 258.52C141.639 258.52 148.831 258.9 149.713 273.697C149.713 273.697 133.036 288.646 110.509 292.205C108.818 292.472 112.874 280.66 113.483 279.06C116.384 271.447 125.52 266.544 141.639 258.52Z" fill="url(#paint8_linear_169_2848)"/>
<path d="M222.634 241.122H207.458C207.458 241.122 160.877 189.678 130.325 184.488C130.325 184.488 109.059 211.634 131.458 262.357C133.26 266.437 138.3 268.25 142.059 265.849C143.183 265.131 143.991 264.169 144.481 262.962L142.68 219.653C142.68 219.653 182.414 254.405 189.32 261.111C196.226 267.817 231.332 263.73 222.634 241.122Z" fill="url(#paint9_linear_169_2848)"/>
<path d="M75.9084 349.133C82.2683 343.56 92.4016 337.306 107.03 335.513L111.977 338.539C111.977 338.539 108.823 343.193 103.06 348.108C97.7628 351.185 89.584 355.351 82.8033 356.254C76.2109 357.132 75.2387 353.149 75.9084 349.133Z" fill="url(#paint10_linear_169_2848)"/>
<path d="M113.483 279.06C117.401 280.328 119.124 285.879 129.066 282.208C138.685 278.657 145.835 274.077 149.514 271.436C149.596 272.152 149.665 272.899 149.713 273.697C149.713 273.697 132.129 290.422 109.602 293.98C107.911 294.247 106.57 292.559 107.18 290.959C108.274 288.088 110.246 283.734 113.483 279.06Z" fill="#7D97F4"/>
<path d="M71.1176 353.891C72.3714 352.467 73.9716 350.83 75.9087 349.133C75.2389 353.149 76.2112 357.132 82.8035 356.254C89.5842 355.351 97.7631 351.185 103.06 348.108C96.4213 353.77 86.3203 359.779 73.5715 359.426C70.7397 359.348 69.2463 356.018 71.1176 353.891Z" fill="#7D97F4"/>
<path d="M222.079 252.103L151.008 252.873C151.008 252.873 110.422 286.453 103.06 337.656C103.06 337.656 101.838 341.422 109.174 342.066C109.174 342.066 133.713 326.04 149.713 297.705C169.331 262.962 208.198 278.601 208.198 278.601C220.969 269.394 239.014 267.519 252.609 264.452L222.079 252.103Z" fill="url(#paint11_linear_169_2848)"/>
<path d="M220.401 194.852C220.401 194.852 212.75 233.195 175.263 248.364L161.928 246.793L158.781 251.81L190.06 252.806C190.06 252.806 216.797 242.216 230.963 213.36C231.431 212.407 239.232 196.3 220.401 194.852Z" fill="url(#paint12_linear_169_2848)"/>
<path d="M216.301 251.477C216.301 251.477 225.001 227.826 226.871 204.846C226.871 204.846 220.506 199.376 216.528 197.016C215.239 196.252 214.753 194.635 215.404 193.286C218.329 187.227 236.018 163.435 237.343 163.104C244.545 161.307 274.081 147.263 294.884 175.718C303.811 187.929 293.112 225.521 252.609 264.452L244.253 266.05L216.301 251.477Z" fill="url(#paint13_linear_169_2848)"/>
<path d="M249.826 210.029C249.826 210.029 225.654 238.65 194.749 242.834C194.749 242.834 186.762 235.553 180.823 238.153C174.884 240.752 166.74 252.227 166.74 252.227H206.422C206.422 252.227 243.942 250.905 262.691 228.153C261.182 220.191 256.664 215.436 249.826 210.029Z" fill="url(#paint14_linear_169_2848)"/>
<path d="M263.928 143.029L269.217 160.669C269.459 161.478 269.16 162.353 268.463 162.83C265.917 164.574 259.262 168.042 250.132 164.672C249.088 164.286 248.372 163.311 248.282 162.202L247.028 146.834L263.928 143.029Z" fill="url(#paint15_linear_169_2848)"/>
<path d="M232.958 128.744C232.958 128.744 235.558 147.029 242.582 152.653C249.607 158.276 263.292 154.042 267.915 140.257L258.704 116.686L232.958 128.744Z" fill="url(#paint16_linear_169_2848)"/>
<path d="M259.742 131.939C259.208 132.111 258.648 131.769 258.565 131.214C258.311 129.526 257.678 126.185 256.397 123.91C256.397 123.91 257.067 121.511 250.334 125.135C243.601 128.759 233.487 134.083 227.533 130.912C221.728 127.822 215.847 112.266 231.19 115.148C231.773 115.258 232.31 114.793 232.266 114.201C232.078 111.644 232.332 105.762 238.288 103.875C243.861 102.108 240.869 104.971 242.126 106.49C242.496 106.937 241.659 104.969 249.579 106.12C252.296 106.515 255.783 99.3006 262.458 102.242C267.956 104.665 268.811 108.052 268.721 110.162C268.691 110.846 269.385 111.309 270.007 111.023C271.69 110.247 274.399 109.845 276.993 113.095C280.58 117.589 275.455 121.487 273.917 122.508C273.665 122.676 273.508 122.953 273.507 123.256C273.492 125.593 273.128 135.788 268.019 141.538C267.576 142.036 266.758 141.89 266.501 141.276L262.567 131.902C262.384 131.467 261.898 131.244 261.449 131.389L259.742 131.939Z" fill="url(#paint17_linear_169_2848)"/>
<path d="M259.659 133.842C259.659 133.842 262.061 124.057 265.711 127.234C269.36 130.411 264.759 137.403 260.579 138.736L259.659 133.842Z" fill="url(#paint18_linear_169_2848)"/>
<path d="M168.738 254.448L150.921 195.031C150.194 192.607 148.041 190.887 145.516 190.714L121.461 189.068C119.016 188.901 117.197 191.289 118.009 193.602L137.926 250.345C138.568 252.173 140.209 253.465 142.137 253.66L165.825 256.29L168.738 254.448Z" fill="url(#paint19_linear_169_2848)"/>
<path d="M135.879 215.169C137.209 217.854 139.506 219.427 141.009 218.682C142.513 217.937 142.653 215.157 141.323 212.472C139.993 209.786 137.696 208.214 136.192 208.958C134.689 209.703 134.548 212.484 135.879 215.169Z" fill="#91B3FA"/>
<path d="M165.825 256.29C165.864 256.29 165.902 256.289 165.941 256.287L216.415 253.736C217.663 253.673 218.623 252.611 218.56 251.363C218.497 250.115 217.43 249.134 216.187 249.218L165.713 251.769C164.465 251.831 163.505 252.894 163.568 254.142C163.629 255.351 164.628 256.29 165.825 256.29Z" fill="url(#paint20_linear_169_2848)"/>
<path d="M226.871 205.247C227.091 205.247 227.272 205.067 227.271 204.845C227.237 194.301 231.306 180.302 231.348 180.161C231.41 179.95 231.289 179.727 231.077 179.664C230.861 179.604 230.641 179.723 230.579 179.936C230.537 180.077 226.435 194.186 226.471 204.848C226.471 205.068 226.651 205.247 226.871 205.247Z" fill="url(#paint21_linear_169_2848)"/>
<path d="M249.825 210.429C249.943 210.429 250.061 210.377 250.14 210.277C250.25 210.136 261.291 196.103 265.086 186.486C265.168 186.279 265.066 186.047 264.861 185.966C264.655 185.884 264.422 185.985 264.341 186.191C260.588 195.699 249.622 209.641 249.51 209.78C249.374 209.954 249.403 210.206 249.577 210.343C249.65 210.401 249.738 210.429 249.825 210.429Z" fill="url(#paint22_linear_169_2848)"/>
<path d="M265.36 231.885L265.658 231.758C281.629 224.92 291.494 205.852 291.592 205.661C291.693 205.463 291.614 205.222 291.417 205.122C291.224 205.022 290.982 205.098 290.878 205.296C290.782 205.485 281.168 224.063 265.639 230.892L263.994 228.568C263.864 228.386 263.614 228.345 263.436 228.472C263.254 228.6 263.212 228.849 263.339 229.03L265.36 231.885Z" fill="url(#paint23_linear_169_2848)"/>
<path d="M347.014 347.23C347.014 347.23 376.085 280.073 354.075 209.321C353.932 208.859 353.114 208.948 353.054 209.433C347.748 252.224 346.166 298.568 347.014 347.23Z" fill="#91B3FA"/>
<path d="M347.13 345.816C347.097 345.816 347.062 345.812 347.029 345.802C346.83 345.746 346.715 345.54 346.77 345.341C351.908 327.092 353.863 296.022 354.599 273.172C355.396 248.401 354.972 227.689 354.968 227.483C354.963 227.277 355.127 227.106 355.333 227.102C355.336 227.102 355.338 227.102 355.341 227.102C355.544 227.102 355.71 227.264 355.714 227.467C355.719 227.673 356.144 248.406 355.345 273.196C354.608 296.088 352.647 327.221 347.489 345.544C347.443 345.709 347.293 345.816 347.13 345.816Z" fill="#BDD0FB"/>
<path d="M340.357 336.285C340.357 336.285 358.316 253.885 324.376 170.501C324.155 169.956 323.348 170.116 323.369 170.701C325.199 222.344 331.364 278.004 340.357 336.285Z" fill="#91B3FA"/>
<path d="M340.175 334.508C340.163 334.508 340.151 334.508 340.139 334.507C339.934 334.487 339.783 334.305 339.803 334.1C343.836 291.555 328.472 193.227 328.316 192.239C328.284 192.035 328.423 191.844 328.627 191.812C328.83 191.777 329.021 191.919 329.054 192.122C329.21 193.112 344.588 291.532 340.546 334.17C340.528 334.363 340.365 334.508 340.175 334.508Z" fill="#BDD0FB"/>
<path d="M337.508 358.628C337.508 358.628 346.111 286.745 303.37 222.057C303.091 221.634 302.313 221.893 302.398 222.38C309.925 265.41 322.174 311.138 337.508 358.628Z" fill="#91B3FA"/>
<path d="M337.089 357.226C336.886 357.226 336.719 357.064 336.715 356.86C336.334 337.907 329.003 307.063 322.92 284.527C316.326 260.095 309.736 239.891 309.67 239.69C309.606 239.493 309.713 239.283 309.909 239.219C310.105 239.157 310.316 239.262 310.38 239.458C310.446 239.659 317.041 259.878 323.64 284.329C329.734 306.907 337.08 337.816 337.462 356.845C337.466 357.051 337.302 357.222 337.096 357.226C337.094 357.226 337.091 357.226 337.089 357.226Z" fill="#BDD0FB"/>
<path d="M319.819 319.02H359.331C361.92 319.02 363.836 321.429 363.254 323.952C360.726 334.904 357.696 346.017 351.497 357.297C350.352 359.38 348.172 360.687 345.795 360.687H332.902C330.56 360.687 328.412 359.4 327.302 357.338C322.336 348.109 317.558 337.108 315.198 324.621C314.649 321.715 316.862 319.02 319.819 319.02Z" fill="#7D97F4"/>
<defs>
<linearGradient id="paint0_linear_169_2848" x1="385.387" y1="362.241" x2="119.588" y2="129.667" gradientUnits="userSpaceOnUse">
<stop stop-color="#DAE3FE"/>
<stop offset="1" stop-color="#E9EFFD"/>
</linearGradient>
<linearGradient id="paint1_linear_169_2848" x1="253.294" y1="-3.4004" x2="151.213" y2="197.986" gradientUnits="userSpaceOnUse">
<stop stop-color="#FF928E"/>
<stop offset="1" stop-color="#FE7062"/>
</linearGradient>
<linearGradient id="paint2_linear_169_2848" x1="196.283" y1="44.0446" x2="107.352" y2="175.239" gradientUnits="userSpaceOnUse">
<stop stop-color="#FF928E"/>
<stop offset="1" stop-color="#FE7062"/>
</linearGradient>
<linearGradient id="paint3_linear_169_2848" x1="161.491" y1="99.3534" x2="-21.6305" y2="220.283" gradientUnits="userSpaceOnUse">
<stop stop-color="#FF928E"/>
<stop offset="1" stop-color="#FE7062"/>
</linearGradient>
<linearGradient id="paint4_linear_169_2848" x1="101.074" y1="71.1956" x2="90.2146" y2="130.189" gradientUnits="userSpaceOnUse">
<stop stop-color="#FF928E"/>
<stop offset="1" stop-color="#FE7062"/>
</linearGradient>
<linearGradient id="paint5_linear_169_2848" x1="125.042" y1="75.6076" x2="114.182" y2="134.601" gradientUnits="userSpaceOnUse">
<stop stop-color="#FF928E"/>
<stop offset="1" stop-color="#FE7062"/>
</linearGradient>
<linearGradient id="paint6_linear_169_2848" x1="151.677" y1="80.5105" x2="140.818" y2="139.504" gradientUnits="userSpaceOnUse">
<stop stop-color="#FF928E"/>
<stop offset="1" stop-color="#FE7062"/>
</linearGradient>
<linearGradient id="paint7_linear_169_2848" x1="321.903" y1="337.673" x2="197.758" y2="211.547" gradientUnits="userSpaceOnUse">
<stop stop-color="#4F52FF"/>
<stop offset="1" stop-color="#4042E2"/>
</linearGradient>
<linearGradient id="paint8_linear_169_2848" x1="134.372" y1="272.584" x2="108.3" y2="299.814" gradientUnits="userSpaceOnUse">
<stop stop-color="#09005D"/>
<stop offset="1" stop-color="#1A0F91"/>
</linearGradient>
<linearGradient id="paint9_linear_169_2848" x1="174.613" y1="245.572" x2="147.467" y2="143.32" gradientUnits="userSpaceOnUse">
<stop stop-color="#09005D"/>
<stop offset="1" stop-color="#1A0F91"/>
</linearGradient>
<linearGradient id="paint10_linear_169_2848" x1="99.7855" y1="340.933" x2="50.4691" y2="377.129" gradientUnits="userSpaceOnUse">
<stop stop-color="#09005D"/>
<stop offset="1" stop-color="#1A0F91"/>
</linearGradient>
<linearGradient id="paint11_linear_169_2848" x1="99.0773" y1="272.281" x2="202.235" y2="311.191" gradientUnits="userSpaceOnUse">
<stop stop-color="#09005D"/>
<stop offset="1" stop-color="#1A0F91"/>
</linearGradient>
<linearGradient id="paint12_linear_169_2848" x1="179.462" y1="207.162" x2="212.943" y2="246.977" gradientUnits="userSpaceOnUse">
<stop stop-color="#FEBBBA"/>
<stop offset="1" stop-color="#FF928E"/>
</linearGradient>
<linearGradient id="paint13_linear_169_2848" x1="163.164" y1="302.631" x2="258.258" y2="199.612" gradientUnits="userSpaceOnUse">
<stop stop-color="#FF928E"/>
<stop offset="1" stop-color="#FE7062"/>
</linearGradient>
<linearGradient id="paint14_linear_169_2848" x1="218.502" y1="243.389" x2="151.579" y2="151.835" gradientUnits="userSpaceOnUse">
<stop stop-color="#FEBBBA"/>
<stop offset="1" stop-color="#FF928E"/>
</linearGradient>
<linearGradient id="paint15_linear_169_2848" x1="277.892" y1="210.151" x2="251.477" y2="140.592" gradientUnits="userSpaceOnUse">
<stop stop-color="#FEBBBA"/>
<stop offset="1" stop-color="#FF928E"/>
</linearGradient>
<linearGradient id="paint16_linear_169_2848" x1="246.293" y1="148.166" x2="257.158" y2="112.33" gradientUnits="userSpaceOnUse">
<stop stop-color="#FEBBBA"/>
<stop offset="1" stop-color="#FF928E"/>
</linearGradient>
<linearGradient id="paint17_linear_169_2848" x1="256.076" y1="82.4899" x2="245.996" y2="139.978" gradientUnits="userSpaceOnUse">
<stop stop-color="#09005D"/>
<stop offset="1" stop-color="#1A0F91"/>
</linearGradient>
<linearGradient id="paint18_linear_169_2848" x1="257.547" y1="151.578" x2="268.412" y2="115.742" gradientUnits="userSpaceOnUse">
<stop stop-color="#FEBBBA"/>
<stop offset="1" stop-color="#FF928E"/>
</linearGradient>
<linearGradient id="paint19_linear_169_2848" x1="251.344" y1="57.7637" x2="205.119" y2="128.421" gradientUnits="userSpaceOnUse">
<stop stop-color="#4042E2"/>
<stop offset="1" stop-color="#4F52FF"/>
</linearGradient>
<linearGradient id="paint20_linear_169_2848" x1="189.988" y1="130.053" x2="190.648" y2="205.332" gradientUnits="userSpaceOnUse">
<stop stop-color="#4042E2"/>
<stop offset="1" stop-color="#4F52FF"/>
</linearGradient>
<linearGradient id="paint21_linear_169_2848" x1="226.47" y1="192.448" x2="231.364" y2="192.448" gradientUnits="userSpaceOnUse">
<stop stop-color="#E1473D"/>
<stop offset="1" stop-color="#E9605A"/>
</linearGradient>
<linearGradient id="paint22_linear_169_2848" x1="249.425" y1="198.183" x2="265.114" y2="198.183" gradientUnits="userSpaceOnUse">
<stop stop-color="#E1473D"/>
<stop offset="1" stop-color="#E9605A"/>
</linearGradient>
<linearGradient id="paint23_linear_169_2848" x1="263.266" y1="218.482" x2="291.636" y2="218.482" gradientUnits="userSpaceOnUse">
<stop stop-color="#E1473D"/>
<stop offset="1" stop-color="#E9605A"/>
</linearGradient>
</defs>
</svg>
