<svg width="56" height="64" viewBox="0 0 56 64" fill="none" xmlns="http://www.w3.org/2000/svg">
<path fill-rule="evenodd" clip-rule="evenodd" d="M27.7378 3.6882C30.7963 6.23852 33.881 8.68039 36.812 11.3728C41.662 15.8377 45.9424 20.8037 49.072 26.6971C50.9461 30.2347 52.1717 33.9816 52.1717 38.0464C52.1717 42.2758 50.8636 46.09 48.4311 49.5453C44.5143 54.9937 39.0908 58.2134 32.5467 59.3502C25.2079 60.6141 18.3676 59.2679 12.2544 54.8291C7.44563 51.3739 4.4434 46.7407 3.41267 40.8473C3.3677 40.3836 3.30273 39.9211 3.21777 39.4599V36.0907C3.26275 36.0047 3.30398 35.8813 3.34521 35.7691C3.74626 31.9436 5.20801 28.4883 7.12329 25.2275C10.3766 19.6669 14.657 14.9066 19.4246 10.5539C22.037 8.15312 24.8893 5.9618 27.6104 3.6882H27.7378ZM27.7791 20.2765C24.5969 23.2867 21.7071 26.297 19.4695 29.7485C18.3301 31.4575 17.3144 33.2449 16.5797 35.1595C15.3541 38.1698 16.175 40.9295 18.4126 43.2069C22.6104 47.6007 30.1854 48.214 35.2715 44.6765C39.2183 41.9018 40.249 38.2409 38.2887 33.8545C37.1493 31.2481 35.5639 28.9745 33.6861 26.8243C31.7708 24.618 29.7806 22.4678 27.7791 20.2765Z" fill="white"/>
</svg>
