<svg width="201" height="68" viewBox="0 0 201 68" fill="none" xmlns="http://www.w3.org/2000/svg">
<g clip-path="url(#clip0_3_58)">
<mask id="mask0_3_58" style="mask-type:luminance" maskUnits="userSpaceOnUse" x="-233" y="-115" width="462" height="602">
<path d="M-232.008 -114.13H228.642V486.103H-232.008V-114.13Z" fill="white"/>
</mask>
<g mask="url(#mask0_3_58)">
<path fill-rule="evenodd" clip-rule="evenodd" d="M23.3669 0.0661316C26.2779 2.49995 29.2153 4.82794 32.0072 7.39403C36.625 11.6532 40.7003 16.3886 43.6774 22.0101C45.4637 25.3831 46.6281 28.9544 46.6281 32.83C46.6281 36.8643 45.3843 40.5018 43.0688 43.7954C39.3375 48.9937 34.1771 52.0624 27.9451 53.1471C20.9588 54.3508 14.4488 53.0677 8.62691 48.835C4.04878 45.5414 1.19075 41.1235 0.21161 35.5019C0.167504 35.061 0.105757 34.6201 0.0263672 34.1792V30.965C0.066062 30.8856 0.105757 30.7666 0.145452 30.6608C0.529168 27.01 1.91849 23.7165 3.74445 20.608C6.84065 15.3039 10.916 10.767 15.4544 6.61362C17.942 4.32531 20.6544 2.2354 23.2478 0.0661316H23.3669ZM23.4066 15.8859C20.3766 18.7562 17.6244 21.6265 15.4941 24.9201C14.4091 26.5471 13.4432 28.2534 12.7419 30.0788C11.5776 32.9491 12.3582 35.5813 14.4885 37.7506C18.4845 41.9436 25.6957 42.5256 30.5385 39.1526C34.2962 36.5072 35.2754 33.0152 33.4097 28.8354C32.3247 26.3487 30.8163 24.1794 29.0301 22.1292C27.2041 20.026 25.312 17.9758 23.4066 15.8859ZM14.8325 67.3796C14.687 67.3002 14.5679 67.2606 14.4488 67.2209C12.7419 66.9034 11.6173 65.8585 11.2732 64.1918C10.8498 62.3665 11.0351 60.6602 12.6229 59.3903C15.1501 57.3666 19.371 58.4909 20.1913 61.4406C20.7735 63.5305 20.1119 65.6336 18.4845 66.6389C17.942 66.9828 17.2804 67.1415 16.6585 67.3796H14.8325ZM13.086 62.8427C13.086 64.6945 14.0651 65.8188 15.7323 65.8188C17.3995 65.8188 18.3654 64.6945 18.3257 62.803C18.3257 61.4009 17.7038 60.3956 16.6188 60.0517C14.6738 59.4697 13.1257 60.6998 13.086 62.8427ZM115.419 67.3796C115.163 67.3002 114.903 67.2209 114.639 67.1415C112.548 66.5595 111.344 64.549 111.701 62.1416C112.085 59.4697 114.215 58.0676 117.285 58.5306C119.177 58.8083 120.381 59.8533 120.804 61.5993C121.268 63.6098 120.646 65.5939 119.137 66.5992C118.595 66.9431 117.894 67.1018 117.245 67.3796H115.419ZM113.712 63.0675V63.5702C113.858 64.7341 114.639 65.5939 115.724 65.8188C116.967 66.0172 118.092 65.5542 118.555 64.5093C119.058 63.4247 119.137 62.2607 118.515 61.2157C118.211 60.7395 117.669 60.2766 117.126 60.0914C115.181 59.43 113.712 60.6998 113.712 63.0675ZM89.9748 67.3796L89.2074 67.1415C87.1168 66.5595 85.9127 64.549 86.2568 62.1416C86.6405 59.4697 88.784 58.0676 91.8405 58.5306C93.7458 58.8083 94.9499 59.8533 95.3733 61.5993C95.8364 63.6098 95.2146 65.5939 93.7062 66.5992C93.1637 66.9431 92.4624 67.1018 91.8008 67.3796H89.9748ZM88.268 63.0675V63.5702C88.4267 64.7341 89.2074 65.5939 90.2924 65.8188C91.4568 66.0172 92.5815 65.5939 93.0446 64.6548C93.6268 63.5305 93.7062 62.34 93.0843 61.2422C92.7667 60.7395 92.2242 60.2766 91.6817 60.0914C89.7896 59.43 88.268 60.6998 88.268 63.0675ZM45.4637 67.3796C45.3049 67.3002 45.1594 67.2209 44.9609 67.1812C43.0952 66.7579 41.9706 65.3558 41.825 63.2659C41.6662 61.1363 42.5924 59.43 44.2993 58.8083C45.7019 58.3057 47.0912 58.3057 48.4937 58.7687C50.3462 59.43 51.3915 61.4802 51.0078 63.6892C50.7034 65.6733 49.6184 66.8373 47.6337 67.2209C47.5146 67.2606 47.4088 67.3399 47.2897 67.3796H45.4637ZM49.023 62.8823C49.023 61.1363 48.1365 60.0517 46.6281 59.9327C45.1065 59.8136 44.0612 60.7395 43.8362 62.34C43.5187 64.4299 44.6433 65.8981 46.5487 65.8188C48.0968 65.7791 49.023 64.6945 49.023 62.8823ZM200.684 67.0621C200.446 67.0621 200.168 67.0621 199.982 67.1018C198.897 67.2606 198.117 67.0225 197.918 65.7791C197.918 65.6336 197.574 65.3955 197.349 65.3955C196.489 65.3558 195.682 65.3955 194.822 65.3558C194.359 65.3558 194.161 65.5146 194.041 65.9378C193.936 66.3214 193.737 66.6786 193.618 67.0621H191.567C191.647 66.877 191.647 66.6786 191.726 66.5198C192.732 64.0728 193.737 61.6787 194.703 59.2316C194.862 58.8083 195.1 58.6893 195.523 58.6893C197.23 58.6893 197.23 58.6893 197.852 60.1972C198.673 62.2695 199.497 64.3109 200.326 66.3214C200.406 66.5595 200.565 66.7579 200.684 66.9431V67.0621ZM194.862 63.8082H197.23C196.833 62.7633 196.489 61.7977 196.145 60.8189C196.066 60.8453 196 60.8586 195.947 60.8586C195.603 61.8374 195.246 62.803 194.862 63.8082ZM185.123 67.3399C185.017 67.3002 184.938 67.2209 184.819 67.2209C183.231 66.877 182.107 66.0172 181.723 64.4299C181.286 62.6839 181.405 61.0173 182.768 59.6946C184.541 57.9221 188.233 58.147 189.582 60.0914C189.821 60.475 189.979 60.9379 190.204 61.4406C189.516 61.4406 188.974 61.4802 188.392 61.4406C188.233 61.4406 188.034 61.2554 187.955 61.0967C187.492 60.2104 186.724 60.012 185.785 60.0517C184.898 60.0914 184.237 60.5543 183.893 61.3612C183.456 62.34 183.416 63.385 183.853 64.4299C184.197 65.2897 184.898 65.7526 185.864 65.7923C186.751 65.832 187.492 65.5146 187.915 64.668C188.034 64.4696 188.352 64.2712 188.577 64.2315C189.04 64.1654 189.516 64.2315 189.979 64.2315C189.94 65.4352 189 66.5595 187.73 67.0225C187.421 67.1283 187.108 67.2341 186.791 67.3399H185.123ZM4.47219 67.3399C4.3928 67.2958 4.31782 67.2561 4.24725 67.2209C1.72001 66.6786 0.595326 64.9722 0.87319 62.1813C1.09813 59.9723 2.76531 58.5306 5.21316 58.5306C6.53632 58.5306 7.76686 58.7687 8.66661 59.8533C9.01063 60.2766 9.2488 60.8189 9.59282 61.4406C8.81216 61.4406 8.26966 61.4802 7.72716 61.4406C7.58162 61.4406 7.38314 61.3347 7.30375 61.2157C6.80095 60.0914 5.83504 59.893 4.78975 60.0914C3.74445 60.2369 3.16226 60.9776 3.00348 61.9829C2.88439 62.6046 2.88439 63.2659 3.00348 63.8479C3.16226 64.9326 3.89 65.6336 4.93529 65.7923C5.98059 65.9378 6.68187 65.5542 7.30375 64.5886C7.42284 64.3902 7.68747 64.2712 7.92564 64.2315C8.38874 64.1918 8.85185 64.2315 9.32819 64.2315C9.16941 65.6733 8.08442 66.7976 6.60248 67.1812C6.42605 67.2341 6.23199 67.287 6.02029 67.3399H4.47219ZM159.388 30.502V53.4513H147.096V52.7238C147.096 36.0046 147.135 19.2985 147.096 2.61899C147.096 1.97086 147.281 1.81213 147.903 1.81213C153.487 1.83858 159.057 1.83858 164.614 1.81213C169.775 1.77245 174.432 3.28035 178.309 6.73267C186.804 14.4045 185.639 27.5524 175.901 33.6104C175.822 33.6457 175.707 33.7207 175.557 33.8353C177.498 37.1157 179.434 40.374 181.366 43.6102C183.311 46.8641 185.242 50.118 187.267 53.5307H186.367C182.265 53.5307 178.19 53.491 174.115 53.5307C173.466 53.5307 173.109 53.3455 172.805 52.8032C168.535 45.6252 164.27 38.4516 160.01 31.2824C159.851 30.9914 159.683 30.7181 159.507 30.4623C159.454 30.4623 159.414 30.4756 159.388 30.502ZM159.388 13.8622V24.4175C161.677 24.4175 163.926 24.4969 166.136 24.3778C167.605 24.3381 168.888 23.7165 170.013 22.7905C172.262 20.8858 172.342 18.0552 170.238 16.005C169.351 15.1055 168.266 14.4442 167.023 14.3383C164.508 14.0606 161.981 14.0209 159.388 13.8622ZM104.94 1.93117C105.218 1.89149 105.376 1.89149 105.522 1.89149C110.643 1.89149 115.803 1.77245 120.924 1.93117C127.235 2.11636 132.779 4.40467 137.397 8.75643C143.483 14.4045 146.196 21.5075 145.614 29.801C144.807 41.5865 135.571 51.4804 123.861 53.2264C122.511 53.4249 121.109 53.5307 119.759 53.5307C115.102 53.5704 110.418 53.5307 105.76 53.5704C105.099 53.5704 104.9 53.4249 104.9 52.7238V2.65867C104.9 2.43381 104.94 2.19572 104.94 1.93117ZM117.153 27.7508V40.6209C117.153 40.978 117.086 41.3616 117.669 41.3219C119.177 41.2426 120.765 41.3219 122.233 41.0441C128.016 40.1182 132.673 35.2374 133.361 29.4571C134.102 23.3725 130.808 17.6319 125.303 15.2246C122.935 14.2193 120.487 14.1002 117.973 14.0606C117.351 14.0606 117.153 14.259 117.153 14.9203C117.192 19.1795 117.153 23.4784 117.153 27.7508ZM76.9549 1.85181V41.9833H94.2486V53.5307H93.3489C87.3241 53.5571 81.3037 53.5571 75.2878 53.5307C73.4618 53.5307 71.6358 53.5704 69.7702 53.491C67.1371 53.3455 64.848 50.9778 64.8083 48.3324C64.7289 43.7293 64.7686 39.113 64.7289 34.4967V2.77772C64.7289 1.85181 64.7289 1.85181 65.7081 1.85181H76.1346H76.9549ZM187.465 1.89149H199.638V53.491H187.465V1.89149ZM48.7319 53.6233V1.89149C48.9965 1.89149 49.2347 1.85181 49.4994 1.85181C53.0322 1.85181 56.5915 1.85181 60.1243 1.82536C60.7859 1.82536 60.9447 2.05022 60.9447 2.6719C60.9182 19.4 60.9182 36.1104 60.9447 52.8032C60.9447 53.4249 60.7859 53.6629 60.1243 53.6629C56.565 53.6233 53.0322 53.6233 49.4994 53.6233H48.7319ZM90.6893 15.7007C93.6797 18.6107 96.4716 21.5604 98.2446 25.2376C99.9515 28.8089 98.5622 31.4808 95.8497 33.2665C94.3677 34.1924 92.7402 34.6554 90.9937 34.6554C88.2415 34.6951 85.7672 33.8882 83.9015 31.7586C82.3931 30.0523 82.1153 28.1079 82.8959 26.018C83.8221 23.6106 85.3438 21.6001 87.011 19.6557C88.1753 18.2933 89.4456 17.0235 90.6893 15.7007ZM146.249 58.7422C147.149 58.7422 147.995 58.7025 148.855 58.7422C149.001 58.7422 149.2 59.0464 149.279 59.2448C149.742 60.9908 150.205 62.6972 150.668 64.4432C150.708 64.6283 150.787 64.8267 150.906 65.2103C151.25 63.9802 151.528 62.8956 151.833 61.7977C152.031 60.9512 152.309 60.0914 152.494 59.2448C152.574 58.8612 152.732 58.7025 153.116 58.7025C153.897 58.7422 154.664 58.7422 155.485 58.7422V67.0357H153.659V60.7131H153.5C153.112 62.1857 152.728 63.6627 152.349 65.1442C152.296 65.347 152.243 65.541 152.19 65.7262C151.833 67.1151 151.833 67.1151 150.404 67.1151H149.901C149.327 64.9987 148.772 62.8779 148.234 60.7527C148.181 60.7527 148.115 60.766 148.035 60.7924V67.0754H146.249V58.7422ZM59.7406 63.1204C60.7198 63.5569 60.8388 64.3241 60.8653 65.1839C60.8653 65.8056 60.9447 66.3876 61.0241 67.0754C60.561 67.0754 59.8994 67.1151 59.2775 67.0754C59.1717 67.0754 58.9732 66.8108 58.9335 66.6521C58.8541 66.1495 58.8541 65.6071 58.8144 65.0648C58.7747 64.2051 58.4704 63.9008 57.6103 63.8611C56.8429 63.8215 56.0225 63.8611 55.1757 63.8611V67.0357H53.2704V58.7025H54.276C55.8241 58.7422 57.4251 58.7025 59.0129 58.8612C60.1376 58.9406 60.8653 59.7078 61.0638 60.7263C61.2622 61.6919 60.8653 62.4326 59.7406 63.1204ZM55.1757 60.2501C55.1757 60.8718 55.136 61.4935 55.1757 62.0755C55.1757 62.1945 55.4006 62.4326 55.5197 62.4326C56.4062 62.4326 57.306 62.4326 58.2322 62.3532C58.7747 62.3136 59.0923 61.9167 59.0923 61.348C59.0923 60.766 58.7747 60.2898 58.1925 60.2501C57.2266 60.184 56.221 60.2501 55.1757 60.2501ZM175.411 67.0754C174.988 67.0754 174.525 67.0357 174.022 67.1151C173.4 67.1944 173.202 66.8902 173.162 66.3479C173.122 65.8717 173.162 65.4484 173.122 65.0251C173.083 64.2051 172.778 63.9008 171.998 63.8611C171.19 63.8215 170.37 63.8611 169.484 63.8611V67.0357H167.578V58.7819C167.737 58.7422 167.935 58.7025 168.081 58.7025C169.563 58.7025 171.032 58.7025 172.5 58.7422C173.44 58.7422 174.287 58.9406 174.909 59.7078C175.835 60.8718 175.53 62.1945 174.101 63.1204C175.186 63.6231 175.186 64.5622 175.186 65.5278C175.186 66.0304 175.332 66.4934 175.411 67.0754ZM169.484 60.2104C169.484 60.8718 169.444 61.4538 169.523 61.9961C169.523 62.1548 169.748 62.4326 169.907 62.4326C170.727 62.4326 171.574 62.4326 172.434 62.3532C173.122 62.3136 173.44 61.8903 173.4 61.2686C173.4 60.6866 173.003 60.2501 172.315 60.2104C171.415 60.184 170.529 60.2104 169.484 60.2104ZM24.5048 63.8611V67.0357H22.5598V58.7819C24.4255 58.7819 26.2514 58.7025 28.0641 58.7819C29.1491 58.8216 30.0489 59.4036 30.3135 60.4882C30.6311 61.6125 30.2341 62.5384 29.0433 63.1204C30.0489 63.5569 30.1283 64.3241 30.1547 65.1839C30.1547 65.8056 30.2738 66.3876 30.3532 67.0754C29.8504 67.0754 29.2285 67.1151 28.5669 67.0754C28.4214 67.0357 28.2229 66.6918 28.1832 66.4537C28.1038 65.9114 28.1435 65.3691 28.1038 64.8664C28.0245 64.1786 27.6407 63.8611 26.9792 63.8611H24.5048ZM24.5445 62.3532C25.5501 62.3532 26.516 62.3929 27.5217 62.3532C28.1435 62.3136 28.4214 61.8903 28.3817 61.2686C28.3817 60.7263 28.0641 60.2501 27.482 60.2501C26.516 60.184 25.5501 60.2104 24.5445 60.2104V62.3532ZM103.484 58.7554H105.35V67.0886C104.728 67.0886 104.146 67.1283 103.603 67.0886C103.405 67.0489 103.18 66.8241 103.061 66.6256C102.016 65.0781 100.97 63.5172 99.9515 61.9697C99.8456 61.7845 99.7265 61.6257 99.4487 61.467V67.0489H97.5962V58.7157C98.2181 58.7157 98.8268 58.6761 99.409 58.7554C99.6074 58.7554 99.8456 59.02 99.9515 59.2184C101.036 60.8057 102.095 62.3929 103.14 63.9934C103.22 64.0992 103.286 64.2183 103.484 64.2977V58.7554ZM165.104 58.7951V60.1972H160.023C160.023 60.7395 159.983 61.2422 160.063 61.7051C160.063 61.8242 160.407 62.0093 160.605 62.0093C161.69 62.049 162.775 62.0093 163.86 62.0093H164.667V63.4114H160.063V65.5807H165.329V67.0489H158.078V58.7951H165.104ZM144.476 67.0886C143.814 67.0886 143.232 67.1283 142.65 67.0886C142.504 67.0886 142.306 66.9034 142.226 66.7844C142.068 66.4669 142.041 66.123 141.843 65.8585C141.724 65.6601 141.499 65.422 141.3 65.422C140.392 65.3691 139.474 65.3691 138.548 65.422C138.35 65.422 138.045 65.6601 138.045 65.8188C137.807 67.0489 137 67.287 135.915 67.0886H135.439C135.518 66.8637 135.558 66.6653 135.637 66.4669C136.603 64.1125 137.609 61.7051 138.588 59.2977C138.733 58.8745 138.932 58.7157 139.435 58.7157C141.102 58.7554 141.102 58.7158 141.724 60.2633C142.579 62.3356 143.422 64.3902 144.251 66.4272C144.317 66.6256 144.357 66.8241 144.476 67.0886ZM138.733 63.8744H141.102C140.718 62.8294 140.374 61.8242 139.937 60.6602C139.474 61.8638 139.13 62.8294 138.733 63.8744ZM71.8475 67.0886H71.0404C69.6776 67.1283 69.6776 67.1283 69.2144 65.8849C69.0954 65.541 68.9498 65.3823 68.5529 65.3823C67.6663 65.422 66.8063 65.3823 65.9198 65.422C65.7213 65.422 65.417 65.5807 65.3773 65.7394C65.1391 67.3664 64.0144 67.2473 62.7442 67.0489C63.8821 64.2888 65.0068 61.5376 66.1182 58.7951C66.1976 58.7554 66.2241 58.7554 66.3035 58.7554C68.4073 58.6761 68.4073 58.6761 69.1748 60.6205C70.0745 62.7104 70.9213 64.84 71.8475 67.0886ZM67.2826 60.6602C66.846 61.8638 66.4623 62.8294 66.0786 63.8744H68.4338C68.0501 62.8294 67.706 61.8242 67.2826 60.6602ZM34.7064 64.1786V67.0489H32.8011V58.7157H33.542C35.0504 58.7554 36.5721 58.7158 38.0805 58.8745C39.4698 59.0729 40.1711 60.0782 40.1314 61.5067C40.0917 62.9882 39.3639 63.8347 37.882 63.9934C36.8764 64.1125 35.8311 64.1522 34.7064 64.1786ZM34.7858 62.631C35.5532 62.631 36.2942 62.6707 37.0352 62.631C37.7365 62.5517 38.0805 62.1284 38.1202 61.467C38.1599 60.8057 37.8423 60.3427 37.2204 60.2633C36.4133 60.1972 35.5929 60.2633 34.7858 60.2633V62.631ZM123.08 58.7554H129.855V60.2369H125.131V62.1284H129.246V63.5702H125.131V67.0225H123.08V58.7554ZM77.7488 67.0886H75.7244V60.2633H72.8664V58.7951H80.5804V60.184H77.7488V67.0886ZM82.2476 58.7951H84.1V67.0886H82.2476V58.7951ZM177.634 58.7951H179.487V67.0886H177.634V58.7951Z" fill="#013CA6"/>
</g>
</g>
<defs>
<clipPath id="clip0_3_58">
<rect width="200.724" height="67.459" fill="white"/>
</clipPath>
</defs>
</svg>
