<svg width="24" height="24" viewBox="0 0 24 24" fill="none" xmlns="http://www.w3.org/2000/svg">
<path d="M7.65598 11.928C7.51198 11.952 7.36798 11.952 7.19998 11.952C7.05598 11.952 6.91198 11.952 6.74398 11.928C6.59998 11.904 6.47998 12.024 6.47998 12.168V18.72C6.47998 18.984 6.69598 19.2 6.95998 19.2H7.43998C7.70398 19.2 7.91998 18.984 7.91998 18.72V12.168C7.91998 12 7.79998 11.904 7.65598 11.928Z" fill="black"/>
<path d="M12.456 16.968C12.312 16.992 12.168 16.992 12 16.992C11.856 16.992 11.712 16.992 11.544 16.968C11.4 16.944 11.28 17.064 11.28 17.208V18.72C11.28 18.984 11.496 19.2 11.76 19.2H12.24C12.504 19.2 12.72 18.984 12.72 18.72V17.208C12.72 17.04 12.6 16.944 12.456 16.968Z" fill="black"/>
<path d="M17.2561 13.368C17.1121 13.392 16.9681 13.392 16.8001 13.392C16.6561 13.392 16.5121 13.392 16.3441 13.368C16.2001 13.344 16.0801 13.464 16.0801 13.608V18.72C16.0801 18.984 16.2961 19.2 16.5601 19.2H17.0401C17.3041 19.2 17.5201 18.984 17.5201 18.72V13.608C17.5201 13.44 17.4001 13.344 17.2561 13.368Z" fill="black"/>
<path d="M7.92002 7.36799V5.27999C7.92002 5.01599 7.70402 4.79999 7.44002 4.79999H6.96002C6.69602 4.79999 6.48002 5.01599 6.48002 5.27999V7.36799C5.90402 7.63199 5.52002 8.20799 5.52002 8.87999C5.52002 9.81599 6.26402 10.56 7.20002 10.56C8.13602 10.56 8.88002 9.81599 8.88002 8.87999C8.88002 8.20799 8.49602 7.63199 7.92002 7.36799Z" fill="black"/>
<path d="M12.7201 12.408V5.27999C12.7201 5.01599 12.5041 4.79999 12.2401 4.79999H11.7601C11.4961 4.79999 11.2801 5.01599 11.2801 5.27999V12.408C10.7041 12.672 10.3201 13.248 10.3201 13.92C10.3201 14.856 11.0641 15.6 12.0001 15.6C12.9361 15.6 13.6801 14.856 13.6801 13.92C13.6801 13.248 13.2961 12.672 12.7201 12.408Z" fill="black"/>
<path d="M17.5201 8.80799V5.27999C17.5201 5.01599 17.3041 4.79999 17.0401 4.79999H16.5601C16.2961 4.79999 16.0801 5.01599 16.0801 5.27999V8.80799C15.5041 9.07199 15.1201 9.64799 15.1201 10.32C15.1201 11.256 15.8641 12 16.8001 12C17.7361 12 18.4801 11.256 18.4801 10.32C18.4801 9.64799 18.0961 9.07199 17.5201 8.80799Z" fill="black"/>
</svg>
