<svg width="24" height="24" viewBox="0 0 24 24" fill="none" xmlns="http://www.w3.org/2000/svg">
<path fill-rule="evenodd" clip-rule="evenodd" d="M8.96612 9.75811H5.63409C5.14518 9.75409 4.67467 9.94445 4.3261 10.2873C3.97752 10.6301 3.77942 11.0974 3.77539 11.5863V18.5053C3.78444 19.523 4.61643 20.3408 5.63409 20.3322H8.96612C9.455 20.3364 9.92555 20.146 10.2741 19.8032C10.6227 19.4604 10.8208 18.9931 10.8248 18.5041V11.5863C10.8208 11.0974 10.6227 10.6301 10.2741 10.2873C9.92555 9.94445 9.455 9.75409 8.96612 9.75811Z" stroke="black" stroke-opacity="0.5" stroke-width="1.46863" stroke-linecap="round" stroke-linejoin="round"/>
<path fill-rule="evenodd" clip-rule="evenodd" d="M8.96612 2.70879H5.63409C4.6369 2.68114 3.80546 3.46581 3.77539 4.46293V5.65428C3.80546 6.65141 4.6369 7.43608 5.63409 7.40841H8.96612C9.96326 7.43608 10.7947 6.65141 10.8248 5.65428V4.46293C10.7947 3.46581 9.96326 2.68114 8.96612 2.70879Z" stroke="black" stroke-opacity="0.5" stroke-width="1.46863" stroke-linecap="round" stroke-linejoin="round"/>
<path fill-rule="evenodd" clip-rule="evenodd" d="M15.0333 13.2831H18.3642C18.8533 13.2874 19.3241 13.0972 19.6729 12.7543C20.0217 12.4114 20.2201 11.944 20.2241 11.4549V4.53702C20.2201 4.04811 20.022 3.58083 19.6734 3.23798C19.3248 2.89513 18.8542 2.7048 18.3654 2.70886H15.0333C14.5445 2.7048 14.0739 2.89513 13.7253 3.23798C13.3767 3.58083 13.1786 4.04811 13.1746 4.53702V11.4549C13.1786 11.9438 13.3767 12.411 13.7253 12.7539C14.0739 13.0967 14.5445 13.287 15.0333 13.2831Z" stroke="black" stroke-opacity="0.5" stroke-width="1.46863" stroke-linecap="round" stroke-linejoin="round"/>
<path fill-rule="evenodd" clip-rule="evenodd" d="M15.0333 20.3324H18.3642C19.3618 20.3607 20.194 19.5758 20.2241 18.5782V17.3869C20.194 16.3897 19.3625 15.6051 18.3654 15.6327H15.0333C14.0362 15.6051 13.2047 16.3897 13.1746 17.3869V18.5771C13.204 19.5747 14.0357 20.36 15.0333 20.3324Z" stroke="black" stroke-opacity="0.5" stroke-width="1.46863" stroke-linecap="round" stroke-linejoin="round"/>
</svg>
