<svg width="24" height="24" viewBox="0 0 24 24" fill="none" xmlns="http://www.w3.org/2000/svg">
<path d="M17.4553 6.99237C18.9693 6.99237 20.2012 5.76058 20.2012 4.24647C20.2012 2.73236 18.9693 1.50056 17.4553 1.50056C15.9413 1.50056 14.7095 2.73236 14.7095 4.24647C14.7095 5.76058 15.9412 6.99237 17.4553 6.99237ZM17.4553 2.68972C18.3136 2.68972 19.012 3.38813 19.012 4.24647C19.012 5.10481 18.3136 5.80321 17.4553 5.80321C16.597 5.80321 15.8986 5.10481 15.8986 4.24647C15.8986 3.38813 16.5969 2.68972 17.4553 2.68972Z" fill="black" fill-opacity="0.25"/>
<path d="M17.4556 2.00056C18.6934 2.00071 19.7017 3.00879 19.7017 4.24666C19.7016 5.48444 18.6933 6.49261 17.4556 6.49275C16.2177 6.49275 15.2096 5.48456 15.2095 4.24666C15.2095 3.00868 16.2177 2.00056 17.4556 2.00056ZM17.4556 2.19002C16.321 2.19002 15.3989 3.11222 15.3989 4.24666C15.399 5.38102 16.3211 6.3033 17.4556 6.3033C18.5899 6.30316 19.5121 5.38096 19.5122 4.24666C19.5122 3.11227 18.5899 2.19016 17.4556 2.19002Z" stroke="black" stroke-opacity="0.25"/>
<path d="M20.6313 15.239C19.6682 17.4901 17.4962 19.0708 14.9361 19.2294L15.9754 18.1901C16.2076 17.9578 16.2076 17.5814 15.9754 17.3492C15.7431 17.1171 15.3668 17.1171 15.1345 17.3492L13.067 19.4169C12.8348 19.6491 12.8348 20.0255 13.067 20.2577L15.1345 22.3253C15.2506 22.4413 15.4028 22.4994 15.555 22.4994C15.7072 22.4994 15.8593 22.4414 15.9755 22.3253C16.2077 22.0931 16.2077 21.7166 15.9755 21.4844L14.913 20.422C18.6773 20.2357 22.0553 17.4065 22.3175 13.7112C22.3754 12.8952 22.3327 10.4389 22.3327 10.4389C22.3327 9.26662 21.6053 8.23004 20.4932 7.85941C20.4887 7.85792 19.7206 7.6222 19.7206 7.6222C19.418 7.52915 19.0959 7.68979 18.9875 7.98696L17.9955 10.7088C17.9955 10.7088 17.7447 9.15512 17.7239 9.12083C17.7251 9.11878 17.7267 9.11701 17.7279 9.11496L18.2548 8.20225C18.311 8.10482 18.311 7.98491 18.2548 7.88748C18.1986 7.79005 18.0946 7.73009 17.9822 7.73009H16.9283C16.8159 7.73009 16.7119 7.79005 16.6556 7.88748C16.5994 7.98491 16.5994 8.10482 16.6556 8.20225L17.1826 9.11496C17.1838 9.11701 17.1853 9.11885 17.1866 9.12083C17.1658 9.15512 16.915 10.7088 16.915 10.7088L15.923 7.98696C15.8147 7.68972 15.4924 7.52901 15.19 7.6222C15.19 7.6222 14.4218 7.85792 14.4173 7.85941C13.3052 8.23004 12.5581 9.26662 12.5581 10.4389V14.6445C12.5581 14.9728 12.8243 15.239 13.1526 15.239H20.6313ZM13.7472 14.0499V10.4389C13.7472 9.78148 14.1648 9.19987 14.787 8.98953L14.999 8.92448L16.867 14.0498L13.7472 14.0499ZM21.1365 13.4033C21.1365 13.776 20.6492 14.0499 20.2556 14.0499H18.0433L19.9115 8.92455L20.1234 8.9896C20.7458 9.19994 21.1365 9.78148 21.1365 10.4389C21.1365 10.4389 21.1365 12.6124 21.1365 13.4033Z" fill="black" fill-opacity="0.25"/>
<path d="M19.5737 8.09968V8.10065H19.5757C19.5771 8.1011 19.5797 8.10175 19.5825 8.10261C19.5881 8.10433 19.5964 8.1072 19.6069 8.11042C19.6279 8.11686 19.6579 8.12576 19.6938 8.13679C19.7659 8.1589 19.8622 8.1883 19.9585 8.21784C20.1425 8.27433 20.3144 8.32666 20.3354 8.33308V8.33405C21.2374 8.63484 21.8324 9.47581 21.8325 10.4385V10.4542C21.8326 10.4587 21.8333 10.4658 21.8335 10.4747C21.8338 10.4927 21.8339 10.5196 21.8345 10.5538C21.8355 10.6222 21.8368 10.7209 21.8384 10.8419C21.8415 11.084 21.8455 11.4152 21.8472 11.7716C21.8498 12.3127 21.848 12.8967 21.8354 13.3175L21.8188 13.6758C21.5777 17.0754 18.446 19.7468 14.8882 19.9229L13.7622 19.9786L15.6216 21.838C15.6493 21.8656 15.6569 21.9064 15.6431 21.9405L15.6216 21.9717C15.6029 21.9902 15.58 21.9991 15.5552 21.9991C15.5426 21.9991 15.5304 21.9969 15.519 21.9923L15.4878 21.9717L13.4204 19.9044C13.3836 19.8675 13.3836 19.8076 13.4204 19.7706L15.4878 17.7032C15.5248 17.6662 15.5846 17.6662 15.6216 17.7032C15.6584 17.7401 15.6586 17.8 15.6216 17.837L13.6479 19.8106L14.9673 19.7286C17.7174 19.5581 20.0546 17.859 21.0913 15.4356L21.3892 14.7393H13.1528C13.1007 14.7393 13.0582 14.6967 13.0581 14.6446V10.4385C13.0582 9.48178 13.6672 8.63574 14.5747 8.33308C14.5942 8.32715 14.7667 8.27462 14.9517 8.21784C15.0479 8.18831 15.1442 8.1589 15.2163 8.13679C15.2521 8.1258 15.2822 8.11686 15.3032 8.11042C15.3135 8.10725 15.322 8.10433 15.3276 8.10261C15.3304 8.10174 15.333 8.1011 15.3345 8.10065H15.3364L15.3374 8.09968C15.3845 8.08531 15.4363 8.11071 15.4536 8.15827L16.4448 10.88L17.103 12.6837L17.4087 10.7882V10.7872C17.4088 10.7865 17.4095 10.7855 17.4097 10.7842C17.4101 10.7814 17.4107 10.777 17.4116 10.7716C17.4135 10.7602 17.416 10.743 17.4194 10.7217C17.4263 10.6793 17.4359 10.6187 17.4478 10.546C17.4501 10.5315 17.4521 10.5164 17.4546 10.501C17.4571 10.5165 17.46 10.5314 17.4624 10.546C17.4743 10.6187 17.4838 10.6793 17.4907 10.7217C17.4942 10.743 17.4977 10.7602 17.4995 10.7716C17.5004 10.777 17.501 10.7814 17.5015 10.7842V10.7882L17.8081 12.6837L18.4653 10.88L19.4575 8.15827C19.4749 8.11067 19.5262 8.08506 19.5737 8.09968ZM19.4419 8.753L17.5737 13.879L17.4546 14.2032L17.3364 13.879L15.4692 8.753L15.3062 8.30769L14.8521 8.44636L14.6401 8.51179L14.6265 8.51569C13.8014 8.79476 13.2477 9.56694 13.2476 10.4385V14.5499H20.2554C20.5558 14.5499 20.8726 14.4494 21.1226 14.2813C21.3656 14.1178 21.6362 13.8224 21.6362 13.4034V10.4385C21.6361 9.58146 21.1225 8.79925 20.2837 8.51569L20.27 8.51179L20.0581 8.44636L19.604 8.30769L19.4419 8.753ZM17.6606 8.23054L17.4546 8.58698L17.2495 8.23054H17.6606Z" stroke="black" stroke-opacity="0.25"/>
<path d="M6.57017 17.0478C7.60626 17.0478 8.44918 16.2049 8.44918 15.1688C8.44918 14.1328 7.60626 13.2898 6.57017 13.2898C5.53416 13.2898 4.69116 14.1327 4.69116 15.1688C4.69123 16.2048 5.53416 17.0478 6.57017 17.0478ZM6.57017 14.4789C6.95056 14.4789 7.2601 14.7884 7.2601 15.1688C7.2601 15.5492 6.95056 15.8586 6.57017 15.8586C6.18979 15.8586 5.88032 15.5492 5.88032 15.1688C5.88032 14.7884 6.18979 14.4789 6.57017 14.4789Z" fill="black" fill-opacity="0.25"/>
<path d="M6.57007 13.7898C7.32997 13.7898 7.94892 14.4088 7.94897 15.1687C7.94897 15.9286 7.33001 16.5476 6.57007 16.5476C5.81027 16.5475 5.19121 15.9286 5.19116 15.1687L5.198 15.0281C5.26879 14.3339 5.85772 13.7898 6.57007 13.7898ZM6.57007 13.9792C5.91362 13.9793 5.38067 14.5122 5.38062 15.1687C5.38062 15.8252 5.91359 16.3591 6.57007 16.3591C7.22653 16.3591 7.7605 15.8253 7.7605 15.1687C7.76044 14.5121 7.22649 13.9792 6.57007 13.9792Z" stroke="black" stroke-opacity="0.25"/>
<path d="M9.67645 2.87589C9.44419 2.64377 9.06784 2.64377 8.83558 2.87589C8.60339 3.10815 8.60339 3.48457 8.83558 3.71676L9.89775 4.77887C5.78424 4.97733 2.49625 8.28561 2.45956 12.7267L1.73202 13.9868C1.65318 14.1234 1.63183 14.2857 1.67263 14.438C1.71342 14.5903 1.81304 14.7202 1.94964 14.799L2.59007 15.1688L1.94964 15.5386C1.81312 15.6174 1.71342 15.7473 1.67263 15.8996C1.63176 16.0519 1.65318 16.2142 1.73202 16.3507L3.12749 18.7677C3.29166 19.0522 3.65522 19.1494 3.93966 18.9853L4.58009 18.6156V19.3551C4.58009 19.6834 4.84629 19.9496 5.17463 19.9496H7.9655C8.29385 19.9496 8.56005 19.6834 8.56005 19.3551V18.6156L9.20048 18.9853C9.33701 19.0642 9.49934 19.0855 9.65164 19.0447C9.80393 19.0039 9.93381 18.9043 10.0126 18.7677L11.408 16.3507C11.5722 16.0664 11.4748 15.7027 11.1904 15.5386L10.5499 15.1688L11.1904 14.799C11.4748 14.6348 11.5722 14.2712 11.408 13.9868L10.0126 11.5698C9.93381 11.4333 9.80393 11.3336 9.65164 11.2928C9.49934 11.2518 9.33701 11.2734 9.20048 11.3522L8.56005 11.722V10.9824C8.56005 10.6541 8.29385 10.3879 7.9655 10.3879H5.1747C4.84636 10.3879 4.58016 10.6541 4.58016 10.9824V11.722L3.93973 11.3522C3.88797 11.3224 3.8336 11.3014 3.77824 11.2884C4.36261 8.38396 6.8474 6.15942 9.87492 5.97184L8.83558 7.01111C8.60339 7.2433 8.60339 7.61979 8.83558 7.85198C8.95167 7.96801 9.10383 8.02613 9.25605 8.02613C9.40827 8.02613 9.56036 7.96808 9.67652 7.85198L11.7442 5.78434C11.8557 5.67277 11.9183 5.52153 11.9183 5.36386C11.9183 5.20613 11.8557 5.05496 11.7442 4.94339L9.67645 2.87589ZM4.8774 13.2667C5.06144 13.3729 5.2879 13.3729 5.47194 13.2667C5.65591 13.1605 5.76925 12.9643 5.76925 12.7518V11.5769H7.37103V12.7518C7.37103 12.9643 7.48437 13.1605 7.66834 13.2667C7.85238 13.3729 8.07898 13.3729 8.26288 13.2667L9.2803 12.6793L10.0812 14.0665L9.06374 14.6539C8.87977 14.76 8.76643 14.9563 8.76643 15.1688C8.76643 15.3812 8.87977 15.5774 9.06374 15.6837L10.0812 16.2711L9.2803 17.6582L8.26288 17.0708C8.07884 16.9647 7.85224 16.9647 7.66834 17.0708C7.48437 17.177 7.37103 17.3733 7.37103 17.5858V18.7606H5.76925V17.5858C5.76925 17.3733 5.65591 17.1771 5.47194 17.0708C5.2879 16.9647 5.06144 16.9647 4.8774 17.0708L3.85998 17.6582L3.05905 16.2711L4.07647 15.6837C4.26044 15.5775 4.37378 15.3812 4.37378 15.1688C4.37378 14.9563 4.26044 14.7601 4.07647 14.6539L3.05905 14.0665L3.85998 12.6793L4.8774 13.2667Z" fill="black" fill-opacity="0.25"/>
<path d="M9.18945 3.22914C9.22648 3.19259 9.28635 3.19237 9.32324 3.22914L11.3906 5.29652C11.4085 5.31442 11.418 5.33884 11.418 5.36391C11.418 5.38875 11.4083 5.41249 11.3906 5.43031L9.32324 7.49867C9.30453 7.51732 9.28079 7.52602 9.25586 7.52602C9.23118 7.52597 9.20802 7.51704 9.18945 7.49867C9.15253 7.46174 9.15253 7.40181 9.18945 7.36488L11.1631 5.39125L9.84375 5.47328C6.58697 5.67519 3.91647 8.06679 3.28809 11.1901L3.19238 11.6647L3.66406 11.775C3.67308 11.7771 3.6823 11.7811 3.69043 11.7858V11.7848L4.33008 12.1549L5.08008 12.5885V10.9821C5.08028 10.93 5.12273 10.8883 5.1748 10.8883H7.96582C8.01775 10.8885 8.05937 10.9301 8.05957 10.9821V12.5885L8.81055 12.1549L9.4502 11.7848C9.47223 11.7721 9.49808 11.7697 9.52148 11.776H9.52246C9.54648 11.7825 9.56756 11.7983 9.58008 11.82L10.9746 14.237C11.0007 14.2821 10.9857 14.3396 10.9404 14.3659L10.2998 14.736L9.5498 15.1686L10.2998 15.6022L10.9404 15.9713C10.9856 15.9974 11.0007 16.056 10.9746 16.1012L9.58008 18.5182C9.5676 18.5398 9.54662 18.5557 9.52246 18.5621C9.49818 18.5687 9.47182 18.5649 9.4502 18.5524L8.81055 18.1823L8.05957 17.7496V19.3551C8.05954 19.4072 8.01786 19.4497 7.96582 19.4498H5.1748C5.12262 19.4498 5.08011 19.4073 5.08008 19.3551V17.7496L4.33008 18.1823L3.68945 18.5524C3.65515 18.572 3.61419 18.5679 3.58496 18.5455L3.56055 18.5182L2.16504 16.1012V16.1002C2.15263 16.0785 2.14887 16.0528 2.15527 16.0289C2.16171 16.0049 2.17759 15.9839 2.19922 15.9713L2.83984 15.6022L3.58984 15.1686L2.83984 14.736L2.19922 14.3659C2.17773 14.3533 2.16173 14.3324 2.15527 14.3082C2.14893 14.2841 2.15265 14.2584 2.16504 14.237L2.89258 12.9762L2.95801 12.8629L2.95996 12.7311C2.9945 8.55138 6.077 5.46347 9.92188 5.27797L11.0498 5.22426L10.251 4.42543L9.18945 3.36293C9.15256 3.32603 9.15242 3.26618 9.18945 3.22914ZM5.26953 12.7516C5.26953 12.7854 5.25093 12.8168 5.22168 12.8336C5.20709 12.842 5.191 12.8463 5.1748 12.8463L5.12695 12.8336L4.11035 12.2467L3.67676 11.9967L3.42676 12.4293L2.62598 13.8161L2.37598 14.2496L2.80859 14.4996L3.82617 15.0866C3.85556 15.1035 3.87396 15.1349 3.87402 15.1686C3.87402 15.2024 3.85542 15.2337 3.82617 15.2506L2.80859 15.8385L2.37598 16.0885L2.62598 16.5211L3.42676 17.9079L3.67676 18.3414L4.11035 18.0914L5.12695 17.5036C5.15622 17.4867 5.19234 17.4869 5.22168 17.5036C5.25107 17.5205 5.26946 17.5519 5.26953 17.5856V19.2604H7.87109V17.5856C7.87116 17.5519 7.88884 17.5204 7.91797 17.5036C7.94699 17.4868 7.98327 17.4868 8.0127 17.5036L9.03027 18.0914L9.46289 18.3414L9.71289 17.9079L10.5146 16.5211L10.7646 16.0885L10.3311 15.8385L9.31348 15.2506C9.28422 15.2336 9.2666 15.2022 9.2666 15.1686C9.26667 15.1349 9.2843 15.1034 9.31348 15.0866L10.3311 14.4996L10.7646 14.2496L10.5146 13.8161L9.71289 12.4293L9.46289 11.9967L9.03027 12.2467L8.0127 12.8336C7.9982 12.842 7.98207 12.8463 7.96582 12.8463L7.91797 12.8336C7.88877 12.8166 7.87109 12.7852 7.87109 12.7516V11.0768H5.26953V12.7516Z" stroke="black" stroke-opacity="0.25"/>
</svg>
