<svg width="24" height="24" viewBox="0 0 24 24" fill="none" xmlns="http://www.w3.org/2000/svg">
<path d="M17.4556 2.00056C18.6934 2.00071 19.7017 3.00879 19.7017 4.24666C19.7016 5.48444 18.6933 6.49261 17.4556 6.49275C16.2177 6.49275 15.2096 5.48456 15.2095 4.24666C15.2095 3.00868 16.2177 2.00056 17.4556 2.00056ZM17.4556 2.19002C16.321 2.19002 15.3989 3.11222 15.3989 4.24666C15.399 5.38102 16.3211 6.3033 17.4556 6.3033C18.5899 6.30316 19.5121 5.38096 19.5122 4.24666C19.5122 3.11227 18.5899 2.19016 17.4556 2.19002Z" fill="black" stroke="black"/>
<path d="M19.5737 8.09968V8.10065H19.5757C19.5771 8.1011 19.5797 8.10175 19.5825 8.10261C19.5881 8.10433 19.5964 8.1072 19.6069 8.11042C19.6279 8.11686 19.6579 8.12576 19.6938 8.13679C19.7659 8.1589 19.8622 8.1883 19.9585 8.21784C20.1425 8.27433 20.3144 8.32666 20.3354 8.33308V8.33405C21.2374 8.63484 21.8324 9.47581 21.8325 10.4385V10.4542C21.8326 10.4587 21.8333 10.4658 21.8335 10.4747C21.8338 10.4927 21.8339 10.5196 21.8345 10.5538C21.8355 10.6222 21.8368 10.7209 21.8384 10.8419C21.8415 11.084 21.8455 11.4152 21.8472 11.7716C21.8498 12.3127 21.848 12.8967 21.8354 13.3175L21.8188 13.6758C21.5777 17.0754 18.446 19.7468 14.8882 19.9229L13.7622 19.9786L15.6216 21.838C15.6493 21.8656 15.6569 21.9064 15.6431 21.9405L15.6216 21.9717C15.6029 21.9902 15.58 21.9991 15.5552 21.9991C15.5426 21.9991 15.5304 21.9969 15.519 21.9923L15.4878 21.9717L13.4204 19.9044C13.3836 19.8675 13.3836 19.8076 13.4204 19.7706L15.4878 17.7032C15.5248 17.6662 15.5846 17.6662 15.6216 17.7032C15.6584 17.7401 15.6586 17.8 15.6216 17.837L13.6479 19.8106L14.9673 19.7286C17.7174 19.5581 20.0546 17.859 21.0913 15.4356L21.3892 14.7393H13.1528C13.1007 14.7393 13.0582 14.6967 13.0581 14.6446V10.4385C13.0582 9.48178 13.6672 8.63574 14.5747 8.33308C14.5942 8.32715 14.7667 8.27462 14.9517 8.21784C15.0479 8.18831 15.1442 8.1589 15.2163 8.13679C15.2521 8.1258 15.2822 8.11686 15.3032 8.11042C15.3135 8.10725 15.322 8.10433 15.3276 8.10261C15.3304 8.10174 15.333 8.1011 15.3345 8.10065H15.3364L15.3374 8.09968C15.3845 8.08531 15.4363 8.11071 15.4536 8.15827L16.4448 10.88L17.103 12.6837L17.4087 10.7882V10.7872C17.4088 10.7865 17.4095 10.7855 17.4097 10.7842C17.4101 10.7814 17.4107 10.777 17.4116 10.7716C17.4135 10.7602 17.416 10.743 17.4194 10.7217C17.4263 10.6793 17.4359 10.6187 17.4478 10.546C17.4501 10.5315 17.4521 10.5164 17.4546 10.501C17.4571 10.5165 17.46 10.5314 17.4624 10.546C17.4743 10.6187 17.4838 10.6793 17.4907 10.7217C17.4942 10.743 17.4977 10.7602 17.4995 10.7716C17.5004 10.777 17.501 10.7814 17.5015 10.7842V10.7882L17.8081 12.6837L18.4653 10.88L19.4575 8.15827C19.4749 8.11067 19.5262 8.08506 19.5737 8.09968ZM19.4419 8.753L17.5737 13.879L17.4546 14.2032L17.3364 13.879L15.4692 8.753L15.3062 8.30769L14.8521 8.44636L14.6401 8.51179L14.6265 8.51569C13.8014 8.79476 13.2477 9.56694 13.2476 10.4385V14.5499H20.2554C20.5558 14.5499 20.8726 14.4494 21.1226 14.2813C21.3656 14.1178 21.6362 13.8224 21.6362 13.4034V10.4385C21.6361 9.58146 21.1225 8.79925 20.2837 8.51569L20.27 8.51179L20.0581 8.44636L19.604 8.30769L19.4419 8.753ZM17.6606 8.23054L17.4546 8.58698L17.2495 8.23054H17.6606Z" fill="black" stroke="black"/>
<path d="M6.57007 13.7898C7.32997 13.7898 7.94892 14.4088 7.94897 15.1687C7.94897 15.9286 7.33001 16.5476 6.57007 16.5476C5.81027 16.5475 5.19121 15.9286 5.19116 15.1687L5.198 15.0281C5.26879 14.3339 5.85772 13.7898 6.57007 13.7898ZM6.57007 13.9792C5.91362 13.9793 5.38067 14.5122 5.38062 15.1687C5.38062 15.8252 5.91359 16.3591 6.57007 16.3591C7.22653 16.3591 7.7605 15.8253 7.7605 15.1687C7.76044 14.5121 7.22649 13.9792 6.57007 13.9792Z" fill="black" stroke="black"/>
<path d="M9.18945 3.22914C9.22648 3.19259 9.28635 3.19237 9.32324 3.22914L11.3906 5.29652C11.4085 5.31442 11.418 5.33884 11.418 5.36391C11.418 5.38875 11.4083 5.41249 11.3906 5.43031L9.32324 7.49867C9.30453 7.51732 9.28079 7.52602 9.25586 7.52602C9.23118 7.52597 9.20802 7.51704 9.18945 7.49867C9.15253 7.46174 9.15253 7.40181 9.18945 7.36488L11.1631 5.39125L9.84375 5.47328C6.58697 5.67519 3.91647 8.06679 3.28809 11.1901L3.19238 11.6647L3.66406 11.775C3.67308 11.7771 3.6823 11.7811 3.69043 11.7858V11.7848L4.33008 12.1549L5.08008 12.5885V10.9821C5.08028 10.93 5.12273 10.8883 5.1748 10.8883H7.96582C8.01775 10.8885 8.05937 10.9301 8.05957 10.9821V12.5885L8.81055 12.1549L9.4502 11.7848C9.47223 11.7721 9.49808 11.7697 9.52148 11.776H9.52246C9.54648 11.7825 9.56756 11.7983 9.58008 11.82L10.9746 14.237C11.0007 14.2821 10.9857 14.3396 10.9404 14.3659L10.2998 14.736L9.5498 15.1686L10.2998 15.6022L10.9404 15.9713C10.9856 15.9974 11.0007 16.056 10.9746 16.1012L9.58008 18.5182C9.5676 18.5398 9.54662 18.5557 9.52246 18.5621C9.49818 18.5687 9.47182 18.5649 9.4502 18.5524L8.81055 18.1823L8.05957 17.7496V19.3551C8.05954 19.4072 8.01786 19.4497 7.96582 19.4498H5.1748C5.12262 19.4498 5.08011 19.4073 5.08008 19.3551V17.7496L4.33008 18.1823L3.68945 18.5524C3.65515 18.572 3.61419 18.5679 3.58496 18.5455L3.56055 18.5182L2.16504 16.1012V16.1002C2.15263 16.0785 2.14887 16.0528 2.15527 16.0289C2.16171 16.0049 2.17759 15.9839 2.19922 15.9713L2.83984 15.6022L3.58984 15.1686L2.83984 14.736L2.19922 14.3659C2.17773 14.3533 2.16173 14.3324 2.15527 14.3082C2.14893 14.2841 2.15265 14.2584 2.16504 14.237L2.89258 12.9762L2.95801 12.8629L2.95996 12.7311C2.9945 8.55138 6.077 5.46347 9.92188 5.27797L11.0498 5.22426L10.251 4.42543L9.18945 3.36293C9.15256 3.32603 9.15242 3.26618 9.18945 3.22914ZM5.26953 12.7516C5.26953 12.7854 5.25093 12.8168 5.22168 12.8336C5.20709 12.842 5.191 12.8463 5.1748 12.8463L5.12695 12.8336L4.11035 12.2467L3.67676 11.9967L3.42676 12.4293L2.62598 13.8161L2.37598 14.2496L2.80859 14.4996L3.82617 15.0866C3.85556 15.1035 3.87396 15.1349 3.87402 15.1686C3.87402 15.2024 3.85542 15.2337 3.82617 15.2506L2.80859 15.8385L2.37598 16.0885L2.62598 16.5211L3.42676 17.9079L3.67676 18.3414L4.11035 18.0914L5.12695 17.5036C5.15622 17.4867 5.19234 17.4869 5.22168 17.5036C5.25107 17.5205 5.26946 17.5519 5.26953 17.5856V19.2604H7.87109V17.5856C7.87116 17.5519 7.88884 17.5204 7.91797 17.5036C7.94699 17.4868 7.98327 17.4868 8.0127 17.5036L9.03027 18.0914L9.46289 18.3414L9.71289 17.9079L10.5146 16.5211L10.7646 16.0885L10.3311 15.8385L9.31348 15.2506C9.28422 15.2336 9.2666 15.2022 9.2666 15.1686C9.26667 15.1349 9.2843 15.1034 9.31348 15.0866L10.3311 14.4996L10.7646 14.2496L10.5146 13.8161L9.71289 12.4293L9.46289 11.9967L9.03027 12.2467L8.0127 12.8336C7.9982 12.842 7.98207 12.8463 7.96582 12.8463L7.91797 12.8336C7.88877 12.8166 7.87109 12.7852 7.87109 12.7516V11.0768H5.26953V12.7516Z" fill="black" stroke="black"/>
</svg>
