<svg width="24" height="24" viewBox="0 0 24 24" fill="none" xmlns="http://www.w3.org/2000/svg">
<path d="M13.8179 4.54511L13.6275 4.27844C12.8298 3.16175 11.1702 3.16175 10.3725 4.27844L10.1821 4.54511C9.76091 5.1347 9.05383 5.45042 8.33372 5.3704L7.4847 5.27607C6.21087 5.13453 5.13453 6.21087 5.27607 7.4847L5.3704 8.33372C5.45042 9.05383 5.1347 9.76091 4.54511 10.1821L4.27844 10.3725C3.16175 11.1702 3.16175 12.8298 4.27844 13.6275L4.54511 13.8179C5.1347 14.2391 5.45042 14.9462 5.3704 15.6663L5.27607 16.5153C5.13453 17.7891 6.21087 18.8655 7.4847 18.7239L8.33372 18.6296C9.05383 18.5496 9.76091 18.8653 10.1821 19.4549L10.3725 19.7215C11.1702 20.8382 12.8298 20.8382 13.6275 19.7215L13.8179 19.4549C14.2391 18.8653 14.9462 18.5496 15.6663 18.6296L16.5153 18.7239C17.7891 18.8655 18.8655 17.7891 18.7239 16.5153L18.6296 15.6663C18.5496 14.9462 18.8653 14.2391 19.4549 13.8179L19.7215 13.6275C20.8382 12.8298 20.8382 11.1702 19.7215 10.3725L19.4549 10.1821C18.8653 9.76091 18.5496 9.05383 18.6296 8.33372L18.7239 7.4847C18.8655 6.21087 17.7891 5.13453 16.5153 5.27607L15.6663 5.3704C14.9462 5.45042 14.2391 5.1347 13.8179 4.54511Z" stroke="black" stroke-opacity="0.5" stroke-width="1.5" stroke-linecap="round" stroke-linejoin="round"/>
<path d="M9 12L10.8189 13.8189C10.9189 13.9189 11.0811 13.9189 11.1811 13.8189L15 10" stroke="black" stroke-opacity="0.5" stroke-width="1.5" stroke-linecap="round" stroke-linejoin="round"/>
</svg>
